<?xml version="1.0" encoding="utf-8"?>
<!-- Generator: Adobe Illustrator 17.0.2, SVG Export Plug-In . SVG Version: 6.00 Build 0)  -->
<!DOCTYPE svg PUBLIC "-//W3C//DTD SVG 1.1//EN" "http://www.w3.org/Graphics/SVG/1.1/DTD/svg11.dtd">
<svg version="1.1" id="Layer_1" xmlns="http://www.w3.org/2000/svg" xmlns:xlink="http://www.w3.org/1999/xlink" x="0px" y="0px"
	 width="514.178px" height="514.178px" viewBox="0 0 514.178 514.178" enable-background="new 0 0 514.178 514.178"
	 xml:space="preserve">
<g>
	<circle fill="#EAB729" cx="257.089" cy="257.089" r="257.089"/>
	<path fill="#FFFFFF" d="M311.24,142.576l-0.011-25.991l-34.134-10.231l0.051,176.292h-0.092c0,11.032-8.975,20.007-20.007,20.007
		c-11.032,0-20.007-8.974-20.007-20.007h-0.011l-0.03-176.3l-34.134,10.247l0.006,25.983h-88.006v126.856
		c0,59.246,36.419,110.138,88.041,131.489v31.032l34.134,10.24v-31.958c6.553,0.929,13.244,1.42,20.048,1.42
		c6.776,0,13.44-0.487,19.966-1.408v31.946l34.134-10.24v-30.998c51.666-21.331,88.124-72.246,88.124-131.523V142.576H311.24z
		 M365.179,269.433c0,59.6-48.489,108.089-108.089,108.089S149,329.033,149,269.433V176.71h53.878l0.019,109.231h0.12
		c1.71,28.324,25.285,50.846,54.031,50.846c28.748,0,52.325-22.526,54.031-50.854l0.202,0L311.25,176.71h53.929V269.433z"/>
</g>
</svg>
